<?xml version="1.0" encoding="UTF-8"?><svg id="a" xmlns="http://www.w3.org/2000/svg" viewBox="0 0 147.28 146.91"><defs></defs><path class="c" d="M146.96,110.14c-.09,20.32-16.82,36.86-37.19,36.77l-72.9-.32C16.5,146.5-.09,129.81,0,109.5L.32,36.78C.41,16.46,17.14-.09,37.51,0L110.41,.32c20.37,.09,36.96,16.78,36.87,37.1l-.32,72.72Z"/><path class="d" d="M29.81,61.12l16.75,.07c.52,0,.97,.16,1.34,.48,.37,.34,.56,.75,.56,1.24v.06c0,.49-.19,.9-.57,1.24-.38,.32-.82,.48-1.34,.47l-16.75-.07-.04,9.97c0,1.39,.54,2.58,1.64,3.58,1.1,1,2.42,1.5,3.96,1.51l11.14,.05c.52,0,.97,.17,1.34,.51,.37,.34,.56,.75,.56,1.24v.06c0,.47-.19,.87-.57,1.21-.38,.34-.82,.5-1.34,.5l-11.14-.05c-2.64-.01-4.88-.86-6.73-2.54-1.85-1.68-2.76-3.71-2.75-6.09l.1-23.42c.01-2.38,.94-4.41,2.8-6.07,1.86-1.66,4.11-2.49,6.75-2.48l11.14,.05c.52,0,.97,.17,1.34,.51,.37,.34,.56,.74,.56,1.21v.06c0,.49-.19,.9-.57,1.24-.38,.34-.82,.5-1.34,.5l-11.14-.05c-1.54,0-2.86,.49-3.97,1.48-1.11,.99-1.66,2.18-1.67,3.57l-.04,9.97Z"/><path class="d" d="M57.44,77.03c0,.75,.28,1.4,.86,1.95,.6,.53,1.32,.79,2.15,.8l4.71,.02c5.14,.02,9.53-1.59,13.19-4.84,3.65-3.27,5.49-7.22,5.51-11.86,.02-4.64-1.78-8.6-5.41-11.9-3.62-3.3-8.01-4.96-13.14-4.98l-4.71-.02c-.83,0-1.55,.27-2.16,.81-.58,.54-.88,1.19-.88,1.94l-.12,28.1Zm7.89-34.31c6.22,.03,11.51,2.03,15.88,6.01,4.37,3.98,6.54,8.77,6.52,14.39-.02,5.61-2.24,10.39-6.64,14.33-4.41,3.94-9.72,5.9-15.94,5.87l-4.71-.02c-1.91,0-3.54-.62-4.89-1.85-1.35-1.23-2.02-2.7-2.01-4.43l.12-28.1c0-1.75,.69-3.23,2.05-4.44,1.36-1.2,2.99-1.79,4.9-1.78l4.71,.02Z"/><path class="d" d="M117.68,64.09l.04-8.28c.01-2.57-.99-4.78-3-6.63-2.03-1.85-4.48-2.78-7.35-2.79-2.85-.01-5.3,.9-7.34,2.73-2.03,1.83-3.04,4.03-3.06,6.6l-.04,8.28,20.75,.09Zm3.82,17.75c0,.47-.19,.87-.57,1.21-.38,.34-.82,.5-1.34,.5h-.09c-.52,0-.97-.17-1.34-.51-.37-.34-.56-.74-.56-1.21l.06-14.25-20.75-.09-.06,14.24c0,.47-.19,.87-.57,1.21-.38,.34-.82,.5-1.35,.5h-.09c-.52,0-.97-.17-1.34-.51-.37-.34-.56-.74-.56-1.21l.11-26.01c.02-3.57,1.42-6.6,4.22-9.1,2.8-2.48,6.16-3.72,10.09-3.7,3.95,.02,7.32,1.28,10.09,3.79,2.77,2.53,4.15,5.57,4.14,9.14l-.11,26.01Z"/><path class="d" d="M35.82,94.65c.45,.11,.68,.37,.67,.78v.03c0,.26-.12,.47-.36,.64-.23,.16-.49,.2-.77,.14-.46-.11-.92-.16-1.39-.17-1.53,0-2.84,.48-3.93,1.45-1.09,.98-1.64,2.16-1.65,3.55,0,1.39,.53,2.57,1.61,3.56,1.08,.98,2.39,1.47,3.92,1.48,.47,0,.94-.05,1.4-.14,.28-.06,.54-.02,.76,.14,.24,.16,.35,.37,.35,.64v.02c0,.42-.23,.68-.68,.79-.6,.13-1.22,.2-1.84,.2-2.04,0-3.77-.67-5.21-1.97-1.43-1.31-2.15-2.88-2.14-4.71,0-1.84,.73-3.4,2.18-4.7,1.45-1.29,3.19-1.94,5.22-1.93,.62,0,1.23,.07,1.84,.21"/><path class="d" d="M44.06,104.82c0,.37,.14,.68,.43,.94,.29,.26,.63,.39,1.04,.39h2.86c.25,.01,.46,.09,.64,.25,.18,.16,.26,.35,.26,.58v.02c0,.23-.09,.41-.27,.57-.18,.16-.39,.24-.64,.24h-2.86c-.91-.02-1.68-.31-2.32-.89-.64-.58-.96-1.28-.95-2.1l.04-9.53c0-.22,.09-.42,.27-.58,.18-.15,.39-.23,.63-.23h.03c.24,0,.45,.08,.63,.23,.18,.16,.26,.35,.26,.58l-.04,9.53Z"/><path class="d" d="M55.76,94.53c.24,0,.45,.08,.63,.23,.18,.16,.26,.35,.26,.58l-.05,11.7c0,.23-.09,.41-.27,.57-.18,.16-.39,.24-.63,.24h-.03c-.24,0-.45-.08-.63-.24-.18-.15-.26-.34-.26-.57l.05-11.7c0-.22,.09-.42,.27-.58,.18-.15,.39-.23,.63-.23h.03Z"/><path class="d" d="M71.99,94.8c.45,.11,.68,.37,.67,.78v.03c0,.26-.12,.47-.36,.64-.23,.16-.49,.2-.77,.14-.46-.11-.92-.16-1.39-.17-1.53,0-2.84,.48-3.93,1.45-1.09,.98-1.64,2.16-1.65,3.55,0,1.39,.53,2.57,1.61,3.56,1.08,.98,2.39,1.47,3.92,1.48,.47,0,.94-.05,1.4-.14,.28-.06,.54-.02,.76,.14,.24,.16,.35,.37,.35,.64v.02c0,.42-.23,.68-.68,.79-.6,.13-1.22,.2-1.84,.2-2.04,0-3.77-.67-5.21-1.97-1.43-1.31-2.15-2.88-2.14-4.71,0-1.84,.73-3.4,2.18-4.7,1.45-1.29,3.19-1.94,5.22-1.93,.62,0,1.23,.07,1.84,.21"/><path class="d" d="M79.29,94.63c.24,0,.45,.08,.63,.23,.18,.16,.26,.35,.26,.58l-.02,4.59h1.32c.97,.01,1.81-.3,2.5-.91,.7-.62,1.05-1.37,1.06-2.25v-1.41c0-.22,.1-.42,.27-.58,.17-.15,.38-.23,.63-.23h.03c.24,0,.45,.08,.63,.23,.18,.16,.26,.35,.26,.58v1.41c-.01,1.62-.74,2.91-2.18,3.87,.79,.43,1.41,1.01,1.87,1.74,.47,.75,.7,1.55,.7,2.41v2.27c-.01,.23-.1,.41-.27,.57-.18,.16-.39,.24-.64,.24h-.02c-.25,0-.46-.08-.64-.24-.17-.15-.25-.34-.25-.57v-2.27c0-.88-.34-1.63-1.03-2.25-.69-.62-1.52-.94-2.5-.94h-1.74l-.02,5.44c0,.23-.09,.41-.27,.57-.18,.16-.39,.24-.63,.24h-.03c-.24,0-.45-.08-.63-.24-.18-.15-.26-.34-.26-.57l.05-11.7c0-.22,.09-.42,.27-.58,.18-.15,.39-.23,.63-.23h.03Z"/><path class="b" d="M121.01,113.19c1.6,1.61,3.14,3.17,4.69,4.73,1.61,1.63,3.24,3.25,4.85,4.88,.95,.96,.94,1.83-.02,2.78-1.43,1.42-2.87,2.84-4.31,4.26-1.01,1-1.86,1-2.85,0-3.04-3.06-6.08-6.12-9.12-9.18-.12-.12-.25-.24-.41-.39-.65,1.11-1.28,2.18-1.91,3.26-.67,1.15-1.34,2.29-2.01,3.44-.39,.67-.91,1.12-1.74,1.04-.81-.08-1.22-.61-1.5-1.31-2.38-6.05-4.77-12.11-7.16-18.16-1.64-4.16-3.29-8.33-4.94-12.49-.46-1.16-.04-2.2,1.05-2.43,.39-.08,.87,0,1.25,.15,4,1.59,8,3.21,11.99,4.82,6.19,2.5,12.39,4.99,18.59,7.48,.74,.3,1.3,.72,1.35,1.57,.05,.78-.36,1.29-1.02,1.65-2.05,1.16-4.1,2.33-6.14,3.5-.21,.12-.41,.24-.65,.39"/><path class="d" d="M113.73,119.56l.56,.53c.1,.09,.18,.17,.27,.26l9.12,9.18c.82,.83,1.38,.82,2.22,0l4.31-4.26c.79-.78,.79-1.36,.02-2.15-.97-.98-1.94-1.95-2.91-2.93l-7.04-7.1,2.49-1.45c1.6-.91,3.2-1.83,4.81-2.74,.58-.33,.82-.71,.79-1.23-.04-.55-.35-.89-1.07-1.18-5.6-2.25-11.19-4.5-16.78-6.76l-4.88-1.97c-2.97-1.2-5.94-2.4-8.92-3.58-.34-.14-.72-.18-.99-.12-.34,.07-.6,.25-.74,.52-.18,.34-.18,.81,.02,1.31l4.94,12.49c2.39,6.05,4.78,12.11,7.16,18.16,.27,.68,.59,.97,1.12,1.02,.54,.05,.94-.19,1.3-.82,.55-.96,1.11-1.91,1.67-2.86l2.54-4.33Zm11.04,11.48c-.58,0-1.15-.3-1.73-.88l-9.11-9.16-1.96,3.35c-.56,.95-1.11,1.9-1.66,2.86-.54,.94-1.26,1.35-2.17,1.27-1.3-.12-1.73-1.23-1.88-1.59-2.38-6.06-4.77-12.11-7.16-18.16l-4.94-12.49c-.3-.75-.29-1.49,.03-2.07,.27-.5,.75-.84,1.35-.97,.45-.1,1.01-.03,1.51,.17,2.98,1.18,5.95,2.38,8.92,3.58l4.88,1.97c5.59,2.25,11.19,4.51,16.78,6.75,.66,.27,1.56,.76,1.64,1.96,.06,.88-.36,1.58-1.25,2.08-1.6,.91-3.2,1.82-4.8,2.73l-1.48,.85,6.22,6.27c.97,.97,1.94,1.95,2.91,2.93,1.12,1.14,1.12,2.29-.02,3.42l-4.31,4.26c-.6,.59-1.18,.88-1.76,.88"/><path class="d" d="M113.73,119.57l.55,.53c.1,.09,.19,.18,.27,.26l9.12,9.18c.82,.83,1.38,.83,2.23,0,1.44-1.42,2.87-2.84,4.31-4.26,.79-.78,.79-1.37,.02-2.15-.96-.97-1.93-1.94-2.9-2.91l-7.04-7.1,.74-.44c.14-.09,.28-.17,.41-.24l1.48-.84c1.55-.89,3.11-1.77,4.67-2.65,.58-.33,.83-.71,.79-1.24-.04-.56-.34-.89-1.07-1.19-5.47-2.2-10.94-4.4-16.41-6.61l-5.36-2.16c-2.94-1.18-5.87-2.37-8.82-3.54-.34-.14-.72-.18-.99-.12-.35,.07-.6,.25-.75,.52-.19,.35-.18,.81,.02,1.32l4.94,12.49c2.39,6.05,4.78,12.11,7.16,18.16,.27,.68,.59,.98,1.13,1.03,.55,.06,.95-.19,1.31-.82,.55-.96,1.11-1.92,1.67-2.88l2.53-4.32Zm11.04,11.47c-.58,0-1.15-.3-1.73-.88l-9.11-9.17-1.96,3.34c-.56,.96-1.12,1.91-1.67,2.87-.54,.94-1.25,1.35-2.17,1.26-1.29-.12-1.73-1.23-1.87-1.59-2.38-6.05-4.77-12.11-7.16-18.16l-4.94-12.49c-.3-.75-.29-1.48,.02-2.06,.27-.5,.74-.84,1.35-.97,.44-.09,1.01-.03,1.51,.17,2.94,1.17,5.88,2.35,8.82,3.54l5.36,2.16c5.47,2.2,10.94,4.41,16.41,6.6,.66,.27,1.55,.76,1.63,1.95,.06,.88-.36,1.57-1.24,2.07-1.56,.88-3.11,1.77-4.66,2.65l-1.64,.93,6.24,6.29c.97,.97,1.93,1.94,2.9,2.92,1.12,1.14,1.11,2.28-.02,3.41-1.43,1.42-2.87,2.84-4.31,4.26-.59,.59-1.18,.88-1.76,.88"/><path class="d" d="M113.63,118.84l1.25,1.19,9.12,9.17c.64,.65,.93,.65,1.59,0l4.31-4.26c.61-.61,.62-.91,.01-1.52-.96-.97-1.93-1.94-2.9-2.91l-7.45-7.51,3.13-1.82c1.55-.89,3.11-1.77,4.67-2.65,.49-.28,.58-.53,.56-.82-.02-.27-.09-.51-.79-.8-5.47-2.2-10.94-4.4-16.41-6.61l-5.36-2.16c-2.93-1.19-5.87-2.37-8.81-3.54-.29-.12-.58-.14-.73-.1-.21,.05-.36,.14-.44,.29-.12,.22-.1,.57,.04,.94l4.94,12.49c2.39,6.05,4.78,12.11,7.16,18.16,.25,.65,.5,.72,.75,.74,.25,.03,.53,0,.88-.6,.55-.96,1.11-1.92,1.68-2.88l2.82-4.81Zm11.14,12.64c-.7,0-1.38-.34-2.05-1.01l-8.7-8.75-1.66,2.84c-.56,.95-1.12,1.91-1.67,2.87-.63,1.09-1.5,1.59-2.6,1.49-1.05-.1-1.8-.73-2.25-1.88-2.38-6.05-4.77-12.11-7.16-18.16l-4.94-12.49c-.35-.88-.33-1.74,.05-2.44,.33-.62,.92-1.04,1.65-1.2,.53-.11,1.19-.04,1.77,.19,2.89,1.15,5.78,2.31,8.67,3.48l5.51,2.22c5.47,2.21,10.94,4.41,16.41,6.61,.45,.18,1.81,.73,1.92,2.34,.07,1.05-.44,1.91-1.47,2.49-1.56,.88-3.11,1.77-4.66,2.65l-1.13,.64,6.27,6.32c.82,.82,1.64,1.64,2.45,2.47,1.29,1.31,1.28,2.74-.03,4.04l-4.31,4.26c-.68,.67-1.38,1.01-2.08,1.01"/></svg>
